<?xml version="1.0" standalone="no"?>
<!DOCTYPE svg PUBLIC "-//W3C//DTD SVG 20010904//EN"
 "http://www.w3.org/TR/2001/REC-SVG-20010904/DTD/svg10.dtd">
<svg version="1.0" xmlns="http://www.w3.org/2000/svg"
 width="512.000000pt" height="512.000000pt" viewBox="0 0 512.000000 512.000000"
 preserveAspectRatio="xMidYMid meet">
<metadata>
Created by potrace 1.14, written by Peter Selinger 2001-2017
</metadata>
<g transform="translate(0.000000,512.000000) scale(0.100000,-0.100000)"
fill="#000000" stroke="none">
<path d="M4010 4947 c-185 -114 -249 -151 -352 -208 -231 -126 -438 -202 -613
-226 -76 -10 -286 -10 -345 0 -184 33 -452 126 -725 252 -42 19 -78 35 -81 35
-2 0 -37 15 -78 34 -95 44 -249 102 -329 123 -91 25 -263 24 -344 -2 -35 -11
-63 -23 -63 -27 0 -4 -5 -8 -11 -8 -38 0 -164 -114 -272 -246 l-66 -80 34 -75
c19 -41 36 -74 38 -74 3 0 26 27 53 60 163 202 274 274 431 280 131 5 253 -32
593 -180 394 -172 499 -212 665 -254 114 -28 126 -31 207 -38 277 -26 530 31
846 190 154 78 450 252 496 292 l23 20 -21 86 -21 86 -65 -40z"/>
<path d="M1394 4214 c-5 -2 -34 -5 -64 -9 -31 -3 -65 -14 -78 -25 -51 -42 -32
-103 133 -405 118 -217 107 -197 390 -720 288 -530 270 -495 271 -530 1 -19
-13 -59 -39 -105 -48 -89 -40 -74 -307 -565 -117 -214 -229 -419 -248 -455
-19 -36 -55 -101 -80 -145 -24 -44 -57 -113 -73 -153 -67 -168 -34 -193 263
-196 165 -2 300 9 342 29 36 17 41 24 111 160 124 237 199 383 301 580 180
350 222 429 231 432 4 2 55 -86 112 -195 162 -305 321 -605 331 -622 5 -8 31
-58 58 -110 127 -241 139 -254 250 -266 67 -7 321 -10 442 -4 80 3 149 31 151
59 1 12 2 27 3 34 3 20 -33 107 -81 197 -25 47 -104 193 -176 325 -72 132
-142 263 -157 290 -48 90 -112 209 -142 263 -16 29 -83 153 -149 275 -134 249
-132 241 -77 346 64 120 111 206 118 216 4 6 30 53 57 105 48 90 69 129 133
245 222 402 371 683 399 750 35 84 39 135 14 157 -44 36 -84 41 -313 41 -229
1 -305 -12 -340 -57 -24 -32 -59 -97 -176 -324 -60 -118 -134 -262 -164 -320
-136 -262 -263 -507 -265 -510 -3 -3 -117 208 -235 433 -29 55 -85 161 -125
235 -40 74 -94 176 -120 225 -153 289 -151 286 -243 306 -46 9 -428 20 -458
13z"/>
<path d="M2188 815 c-2 -1 -38 -5 -80 -9 -127 -11 -378 -84 -493 -144 -16 -9
-32 -17 -35 -17 -13 -2 -162 -82 -277 -148 -168 -97 -305 -186 -300 -195 3 -4
12 -42 22 -85 9 -42 21 -77 27 -77 5 0 35 17 66 38 31 22 62 41 67 43 6 2 62
35 125 73 244 146 518 269 650 292 14 2 59 10 100 18 109 20 321 14 438 -12
101 -23 312 -91 379 -122 24 -11 45 -20 48 -20 7 0 343 -147 367 -160 35 -19
214 -88 298 -114 115 -36 260 -45 350 -22 132 34 246 122 384 294 l66 83 -36
72 c-20 39 -37 73 -38 74 -2 2 -31 -33 -65 -76 -147 -187 -264 -260 -423 -266
-135 -5 -238 28 -628 198 -433 188 -558 231 -775 266 -64 11 -230 22 -237 16z"/>
</g>
</svg>
